<?xml version="1.0" encoding="UTF-8"?>
<svg width="100px" height="100px" viewBox="0 0 100 100" version="1.1" xmlns="http://www.w3.org/2000/svg" xmlns:xlink="http://www.w3.org/1999/xlink">
    <title>logo/short/blue@3x</title>
    <defs>
        <path d="M27.5604075,23.5783603 C30.083638,16.4851622 30.9774325,8.64111112 31.2231741,2.76807806 C31.421868,-1.98055236 46.3485516,0.285350366 46.3946242,2.86261873 C46.4507989,6.0049914 46.1657184,8.50107841 45.9247208,10.3508797 C45.2667374,15.401299 44.9539979,23.6994984 43.0135625,28.8445754 C39.0455467,39.3657951 29.3971244,53.4080827 14.0682955,70.9714383 L14.0690626,70.9721071 C13.3698309,71.7740456 12.152892,71.857306 11.3509535,71.1580743 C11.3410611,71.1494488 11.3312571,71.1407225 11.321543,71.1318966 L1.4441818,62.1485624 C0.657798128,61.4318819 0.601292565,60.2134076 1.3179731,59.4270239 C1.32296778,59.4215435 1.32799406,59.4160919 1.33305169,59.4106695 C15.8654638,43.824067 24.6074658,31.8795443 27.5604075,23.5783603 Z" id="path-1"></path>
        <filter x="-16.5%" y="-3.7%" width="133.1%" height="107.4%" filterUnits="objectBoundingBox" id="filter-3">
            <feGaussianBlur stdDeviation="0.963243243" in="SourceGraphic"></feGaussianBlur>
        </filter>
        <path d="M0.000519270294,71.7119362 L5.68434189e-14,41.3282139 L9.54791801e-15,13.8198967 C9.49264728e-15,13.765208 0.00232873453,13.7105441 0.00697987563,13.6560536 L1.17261786,-1.08126669e-15 L1.17261786,-1.08126669e-15 L16.6567965,-1.08126669e-15 L16.6567965,13.7395479 L16.6567965,41.3299353 L16.6570531,71.7119362 C16.6570616,72.7759053 15.794551,73.6384295 14.7305819,73.6384379 C14.7305768,73.6384379 14.7305717,73.6384379 14.7305666,73.6384379 L1.92703869,73.6383897 C0.863082434,73.6383897 0.00057037847,72.7758924 0.00055219502,71.7119362 Z" id="path-4"></path>
        <filter x="-8.4%" y="-5.6%" width="116.9%" height="111.2%" filterUnits="objectBoundingBox" id="filter-6">
            <feGaussianBlur stdDeviation="1.92648649" in="SourceGraphic"></feGaussianBlur>
        </filter>
    </defs>
    <g id="logo/short/blue" stroke="none" stroke-width="1" fill="none" fill-rule="evenodd">
        <g id="Group" transform="translate(50.0011, 49.9989) rotate(90) translate(-50.0011, -49.9989)translate(12.0022, 3.4978)">
            <g id="Rect" transform="translate(29.596, 12.8313)">
                <mask id="mask-2" fill="white">
                    <use xlink:href="#path-1" transform="translate(23.2009, 36.2254) scale(-1, 1) translate(-23.2009, -36.2254)"></use>
                </mask>
                <use id="Mask" fill="#002AFF" fill-rule="nonzero" transform="translate(23.2009, 36.2254) scale(-1, 1) translate(-23.2009, -36.2254)" xlink:href="#path-1"></use>
                <polygon fill-opacity="0.2" fill="#000000" fill-rule="nonzero" filter="url(#filter-3)" mask="url(#mask-2)" points="2.37322013 72.1827251 2.3726412 47.8065524 2.3726412 19.7792692 2.3726412 -6.22832899 19.8359916 -6.22832899 19.8359916 19.7810178 19.8359916 47.808301 19.8362606 72.1827251"></polygon>
            </g>
            <g id="Combined-Shape-Copy" transform="translate(29.0011, 19.3638)">
                <mask id="mask-5" fill="white">
                    <use xlink:href="#path-4"></use>
                </mask>
                <use id="Mask" fill="#006AFF" fill-rule="nonzero" xlink:href="#path-4"></use>
                <path d="M0.361026786,18.265337 C4.71364855,5.63691813 3.98278706,-9.40914222 3.70567427,-11.0226488 C3.70567427,-11.0226488 6.86660802,-11.0226488 13.1884755,-11.0226488 C14.5596909,-11.0226488 16.9511082,-11.0226488 20.3627274,-11.0226488 C20.8833934,-3.49264477 20.9345283,1.92958799 20.5161322,5.24404943 C19.8885381,10.2157416 18.6493333,18.3845867 16.7985179,23.4494611 C15.8233239,26.1181418 14.3685185,29.0936521 12.621631,32.1989179 C3.91502754,47.6757691 -12.0471632,66.3758659 -12.0471632,66.3758659 L-24.2284409,54.9425232 C-24.2284409,54.9425232 -3.99159497,30.8937559 0.361026786,18.265337 Z M-29.8262534,-35.3961656 L-17.2596451,-17.965229 C-16.326323,-16.6706333 -16.6191932,-14.8645491 -17.9137889,-13.931227 C-18.4058625,-13.576473 -18.9970988,-13.3855702 -19.603718,-13.3855702 L-44.7369347,-13.3855702 C-46.3328883,-13.3855702 -47.6266644,-14.6793463 -47.6266644,-16.2752999 C-47.6266644,-16.8819192 -47.4357616,-17.4731554 -47.0810075,-17.965229 L-34.5143992,-35.3961656 C-33.5810772,-36.6907613 -31.774993,-36.9836314 -30.4803973,-36.0503094 C-30.2286355,-35.868805 -30.0077578,-35.6479273 -29.8262534,-35.3961656 Z" fill-opacity="0.2" fill="#000000" fill-rule="nonzero" filter="url(#filter-6)" mask="url(#mask-5)"></path>
            </g>
            <path d="M26.9745487,34.9470857 C28.5150423,30.7056503 29.363052,26.3694378 29.7986527,22.4171205 C30.6633622,14.5713898 46.1658368,17.6309105 45.7993847,22.631624 C45.3127786,29.2711854 44.8912585,35.6353041 42.5466929,41.72398 C38.5461164,52.1132024 28.8156469,65.9810632 13.3552842,83.3275624 L13.3579422,83.3299323 C12.6510234,84.1228025 11.4357125,84.1938435 10.6412296,83.4887376 L0.643890044,74.5832861 C-0.149988681,73.8749169 -0.219307895,72.6571044 0.489061245,71.8632257 C0.489411976,71.8628326 0.489762868,71.8624397 0.490113921,71.8620469 C15.167387,55.4556651 23.995127,43.1503161 26.9745487,34.9470857 Z M39.1903881,0.842756965 L52.7470603,20.7619631 C53.3456914,21.6415489 53.1179326,22.8398804 52.2383469,23.4385115 C51.9187266,23.6560396 51.5410501,23.7723671 51.1544294,23.7723671 L24.041085,23.7723671 C22.9771159,23.7723671 22.1145985,22.9098497 22.1145985,21.8458806 C22.1145985,21.4592598 22.230926,21.0815834 22.4484541,20.7619631 L36.0051263,0.842756965 C36.6037574,-0.0368287904 37.8020889,-0.264587562 38.6816747,0.334043511 C38.8816848,0.470166993 39.0542646,0.642746839 39.1903881,0.842756965 Z" id="Combined-Shape" fill="#0096FF" fill-rule="nonzero"></path>
        </g>
    </g>
</svg>