<?xml version="1.0" encoding="UTF-8"?>
<svg width="192px" height="192px" viewBox="0 0 192 192" version="1.1" xmlns="http://www.w3.org/2000/svg" xmlns:xlink="http://www.w3.org/1999/xlink">
    <title>favicon</title>
    <defs>
        <path d="M47.679505,40.7905634 C52.0446938,28.5193306 53.5909583,14.9491222 54.0160912,4.78877504 C54.3598316,-3.42635558 80.1829943,0.493656132 80.2626999,4.95233041 C80.3598821,10.3886351 79.8666928,14.7068656 79.449767,17.907022 C78.3114557,26.6442473 77.7704164,41.0001322 74.4134632,49.9011155 C67.5632237,68.0645699 50.927146,92.2938931 24.5052302,122.589085 L24.5066348,122.590309 C23.2080291,124.080896 20.9469419,124.236527 19.4563552,122.937921 C19.4376249,122.921603 19.4190651,122.905091 19.4006786,122.888387 L2.68384664,107.687001 C1.22222763,106.355876 1.11644185,104.091909 2.44756747,102.63029 C2.45665042,102.620316 2.46578967,102.610394 2.47498479,102.600524 C27.514723,75.7234115 42.5823196,55.1195538 47.679505,40.7905634 Z" id="path-1"></path>
        <filter x="-17.8%" y="-4.0%" width="135.5%" height="107.9%" filterUnits="objectBoundingBox" id="filter-3">
            <feGaussianBlur stdDeviation="1.78976809" in="SourceGraphic"></feGaussianBlur>
        </filter>
        <path d="M0.000894121154,123.814935 L0,71.4978101 L-3.01980663e-14,23.9189316 C-3.02105105e-14,23.8173165 0.00432693899,23.7157475 0.0129690592,23.6145006 L2.0286289,9.64540934e-14 L2.0286289,9.64540934e-14 L28.816258,9.64540934e-14 L28.816258,23.7694178 L28.816258,71.5007881 L28.8167019,123.814935 C28.8167176,125.791858 27.2141174,127.394484 25.2371942,127.3945 C25.2371847,127.3945 25.2371752,127.3945 25.2371657,127.3945 L3.58049149,127.39441 C1.60359213,127.39441 0.000989083443,125.791834 0.000955297421,123.814935 Z" id="path-4"></path>
        <filter x="-8.8%" y="-5.9%" width="117.8%" height="111.9%" filterUnits="objectBoundingBox" id="filter-6">
            <feGaussianBlur stdDeviation="3.57953618" in="SourceGraphic"></feGaussianBlur>
        </filter>
    </defs>
    <g id="favicon" stroke="none" stroke-width="1" fill="none" fill-rule="evenodd">
        <rect id="Rectangle" fill="#FFFFFF" x="0" y="0" width="192" height="192" rx="16"></rect>
        <g id="logo/short/blue" transform="translate(16.055, 30.8637)">
            <g id="Group" transform="translate(80.4469, 65.6355) rotate(90) translate(-80.4469, -65.6355)translate(14.7101, -14.8114)">
                <g id="Rect" transform="translate(51.1986, 22.1982)">
                    <mask id="mask-2" fill="white">
                        <use xlink:href="#path-1" transform="translate(40.1375, 62.6699) scale(-1, 1) translate(-40.1375, -62.6699)"></use>
                    </mask>
                    <use id="Mask" fill="#002AFF" fill-rule="nonzero" transform="translate(40.1375, 62.6699) scale(-1, 1) translate(-40.1375, -62.6699)" xlink:href="#path-1"></use>
                    <polygon fill-opacity="0.2" fill="#000000" fill-rule="nonzero" filter="url(#filter-3)" mask="url(#mask-2)" points="4.10567083 124.876114 4.10466927 82.7053356 4.10466927 34.2181356 4.10466927 -10.7750092 34.3162655 -10.7750092 34.3162655 34.2211608 34.3162655 82.7083607 34.3167309 124.876114"></polygon>
                </g>
                <g id="Combined-Shape-Copy" transform="translate(50.1694, 33.4994)">
                    <mask id="mask-5" fill="white">
                        <use xlink:href="#path-4"></use>
                    </mask>
                    <use id="Mask" fill="#006AFF" fill-rule="nonzero" xlink:href="#path-4"></use>
                    <path d="M0.62457634,31.599033 C8.15461198,9.75186837 6.89022161,-16.277816 6.41081648,-19.0691825 C6.41081648,-19.0691825 11.8792319,-19.0691825 22.8160627,-19.0691825 C25.1882653,-19.0691825 29.3254172,-19.0691825 35.2275184,-19.0691825 C36.1282705,-6.04227545 36.216734,3.33818722 35.4929087,9.07220551 C34.4071709,17.673233 32.2633467,31.805335 29.061436,40.5675678 C27.3743504,45.1843853 24.857537,50.3320181 21.8354216,55.704128 C6.77299765,82.4790806 -20.8415923,114.830248 -20.8415923,114.830248 L-41.9152028,95.0505651 C-41.9152028,95.0505651 -6.9054593,53.4461976 0.62457634,31.599033 Z M-51.2992259,-60.8189742 L-30.2820097,-31.6663379 C-28.5478371,-29.2608956 -29.0920088,-25.9050746 -31.4974511,-24.1709021 C-32.4117556,-23.5117461 -33.5103107,-23.1570365 -34.6374483,-23.1570365 L-76.6718807,-23.1570365 C-79.6372656,-23.1570365 -82.041185,-25.5609559 -82.041185,-28.5263407 C-82.041185,-29.6534784 -81.6864754,-30.7520335 -81.0273194,-31.6663379 L-60.0101032,-60.8189742 C-58.2759306,-63.2244166 -54.9201097,-63.7685883 -52.5146673,-62.0344157 C-52.0468777,-61.6971688 -51.6364727,-61.2867639 -51.2992259,-60.8189742 Z" fill-opacity="0.2" fill="#000000" fill-rule="nonzero" filter="url(#filter-6)" mask="url(#mask-5)"></path>
                </g>
                <path d="M46.6635677,60.4584583 C49.3286218,53.1207751 50.7956785,45.6191274 51.5492677,38.7816185 C53.045215,25.2085043 79.8644961,30.5014752 79.2305339,39.1527094 C78.3887054,50.6391507 77.6594757,61.649076 73.6033772,72.1824853 C66.6964849,90.1192104 49.9172406,114.049475 23.2656443,143.97328 L23.2656346,143.973272 C21.9505236,145.448001 19.6892019,145.578177 18.2135491,144.264103 L1.29934811,129.19579 C-0.176543307,127.880507 -0.30674194,125.617813 1.00854132,124.141921 C1.0096379,124.140691 1.01073532,124.139461 1.01183359,124.138232 C26.3033095,95.8460844 41.5203362,74.6192983 46.6635677,60.4584583 Z M68.0009294,1.75765308 L90.9876304,35.5326703 C92.0999256,37.1669974 91.6767351,39.3935746 90.042408,40.5058698 C89.448533,40.910051 88.7467857,41.126195 88.0284195,41.126195 L42.0550175,41.126195 C40.0780942,41.126195 38.4754813,39.5235821 38.4754813,37.5466588 C38.4754813,36.8282926 38.6916253,36.1265453 39.0958065,35.5326703 L62.0825075,1.75765308 C63.1948027,0.123326002 65.4213799,-0.299864489 67.055707,0.812430665 C67.4273387,1.06535688 67.7480032,1.38602137 68.0009294,1.75765308 Z" id="Combined-Shape" fill="#0096FF" fill-rule="nonzero"></path>
            </g>
        </g>
    </g>
</svg>